<svg width="24" height="24" viewBox="0 0 24 24" fill="none" xmlns="http://www.w3.org/2000/svg">
<rect width="24" height="24" rx="12" fill="#6D49FF"/>
<g clip-path="url(#clip0_1_4487)">
<path d="M10.1106 15.2475H6.67306C6.41258 15.2475 6.16276 15.144 5.97858 14.9598C5.79439 14.7756 5.69092 14.5258 5.69092 14.2653V7.39034C5.69092 7.12987 5.79439 6.88005 5.97858 6.69587C6.16276 6.51168 6.41258 6.4082 6.67306 6.4082H16.4945C16.755 6.4082 17.0048 6.51168 17.189 6.69587C17.3732 6.88005 17.4767 7.12987 17.4767 7.39034V11.81" stroke="white" stroke-width="1.25" stroke-linecap="round" stroke-linejoin="round"/>
<path d="M5.69092 7.64551L11.5838 11.8098L17.4767 7.64551" stroke="white" stroke-width="1.25" stroke-linecap="round" stroke-linejoin="round"/>
<path d="M12.3334 16.3287C11.9888 16.2687 11.9888 15.7739 12.3334 15.714C13.5821 15.4967 14.5752 14.5457 14.8463 13.3076L14.867 13.2127C14.9416 12.872 15.4267 12.8699 15.5041 13.2099L15.5294 13.3205C15.8105 14.5527 16.8038 15.4958 18.0491 15.7124C18.3955 15.7726 18.3955 16.27 18.0491 16.3302C16.8038 16.5469 15.8105 17.4899 15.5294 18.7222L15.5041 18.8328C15.4267 19.1727 14.9416 19.1707 14.867 18.83L14.8463 18.7351C14.5752 17.497 13.5821 16.5459 12.3334 16.3287Z" stroke="white" stroke-width="1.25" stroke-linecap="round" stroke-linejoin="round"/>
</g>
<defs>
<clipPath id="clip0_1_4487">
<rect width="15" height="15" fill="white" transform="translate(4.5 5.24902)"/>
</clipPath>
</defs>
</svg>
